<mxfile host="app.diagrams.net" agent="Mozilla/5.0 (Windows NT 10.0; Win64; x64; rv:138.0) Gecko/20100101 Firefox/138.0" version="27.0.9">
  <diagram name="Page-1" id="Al8stNnn_QFQPGVCUlLM">
    <mxGraphModel dx="1885" dy="2693" grid="1" gridSize="10" guides="1" tooltips="1" connect="1" arrows="1" fold="1" page="1" pageScale="1" pageWidth="850" pageHeight="1100" math="0" shadow="0">
      <root>
        <mxCell id="0" />
        <mxCell id="1" parent="0" />
        <mxCell id="Z5YL0Rhxd1yZk9jb3WXK-10" value="" style="html=1;shadow=0;dashed=0;align=center;verticalAlign=middle;shape=mxgraph.arrows2.bendArrow;dy=15;dx=38;notch=0;arrowHead=55;rounded=1;rotation=90;fillColor=#5F5F5F;strokeColor=#6c8ebf;" vertex="1" parent="1">
          <mxGeometry x="505" y="285" width="160" height="160" as="geometry" />
        </mxCell>
        <mxCell id="Z5YL0Rhxd1yZk9jb3WXK-12" value="" style="html=1;shadow=0;dashed=0;align=center;verticalAlign=middle;shape=mxgraph.arrows2.bendArrow;dy=15;dx=38;notch=0;arrowHead=55;rounded=1;rotation=90;fillColor=#5F5F5F;strokeColor=#6c8ebf;" vertex="1" parent="1">
          <mxGeometry x="665" y="485" width="160" height="160" as="geometry" />
        </mxCell>
        <mxCell id="Z5YL0Rhxd1yZk9jb3WXK-13" value="" style="html=1;shadow=0;dashed=0;align=center;verticalAlign=middle;shape=mxgraph.arrows2.bendArrow;dy=15;dx=38;notch=0;arrowHead=55;rounded=1;rotation=90;fillColor=#5F5F5F;strokeColor=#6c8ebf;" vertex="1" parent="1">
          <mxGeometry x="835" y="685" width="150" height="160" as="geometry" />
        </mxCell>
        <mxCell id="Z5YL0Rhxd1yZk9jb3WXK-14" value="" style="html=1;shadow=0;dashed=0;align=center;verticalAlign=middle;shape=mxgraph.arrows2.bendArrow;dy=15;dx=38;notch=0;arrowHead=55;rounded=1;rotation=90;fillColor=#5F5F5F;strokeColor=#6c8ebf;" vertex="1" parent="1">
          <mxGeometry x="985" y="885" width="160" height="160" as="geometry" />
        </mxCell>
        <mxCell id="Z5YL0Rhxd1yZk9jb3WXK-15" value="" style="html=1;shadow=0;dashed=0;align=center;verticalAlign=middle;shape=mxgraph.arrows2.bendArrow;dy=15;dx=38;notch=0;arrowHead=55;rounded=1;rotation=-90;fillColor=none;strokeColor=#5F5F5F;strokeWidth=6;" vertex="1" parent="1">
          <mxGeometry x="600" y="960" width="160" height="160" as="geometry" />
        </mxCell>
        <mxCell id="Z5YL0Rhxd1yZk9jb3WXK-16" value="" style="html=1;shadow=0;dashed=0;align=center;verticalAlign=middle;shape=mxgraph.arrows2.bendArrow;dy=15;dx=38;notch=0;arrowHead=55;rounded=1;rotation=-90;fillColor=none;strokeColor=#5F5F5F;strokeWidth=6;" vertex="1" parent="1">
          <mxGeometry x="445" y="755" width="150" height="160" as="geometry" />
        </mxCell>
        <mxCell id="Z5YL0Rhxd1yZk9jb3WXK-17" value="" style="html=1;shadow=0;dashed=0;align=center;verticalAlign=middle;shape=mxgraph.arrows2.bendArrow;dy=15;dx=38;notch=0;arrowHead=55;rounded=1;rotation=-90;fillColor=none;strokeColor=#5F5F5F;strokeWidth=6;" vertex="1" parent="1">
          <mxGeometry x="285" y="555" width="150" height="160" as="geometry" />
        </mxCell>
        <mxCell id="Z5YL0Rhxd1yZk9jb3WXK-18" value="" style="html=1;shadow=0;dashed=0;align=center;verticalAlign=middle;shape=mxgraph.arrows2.bendArrow;dy=15;dx=38;notch=0;arrowHead=55;rounded=1;rotation=-90;fillColor=none;strokeColor=#5F5F5F;strokeWidth=6;" vertex="1" parent="1">
          <mxGeometry x="125" y="355" width="150" height="160" as="geometry" />
        </mxCell>
        <mxCell id="Z5YL0Rhxd1yZk9jb3WXK-6" value="&lt;font style=&quot;font-size: 48px; color: rgb(254, 251, 248);&quot;&gt;Abnahme&lt;/font&gt;" style="rounded=1;whiteSpace=wrap;html=1;fillColor=#E77D1A;" vertex="1" parent="1">
          <mxGeometry x="760" y="1040" width="390" height="120" as="geometry" />
        </mxCell>
        <mxCell id="Z5YL0Rhxd1yZk9jb3WXK-5" value="&lt;font style=&quot;font-size: 48px; color: rgb(254, 251, 248);&quot;&gt;Implementierung&lt;/font&gt;" style="rounded=1;whiteSpace=wrap;html=1;fillColor=#E77D1A;" vertex="1" parent="1">
          <mxGeometry x="600" y="840" width="390" height="120" as="geometry" />
        </mxCell>
        <mxCell id="Z5YL0Rhxd1yZk9jb3WXK-4" value="&lt;font style=&quot;font-size: 48px; color: rgb(254, 251, 248);&quot;&gt;Entwurf&lt;/font&gt;" style="rounded=1;whiteSpace=wrap;html=1;fillColor=#E77D1A;" vertex="1" parent="1">
          <mxGeometry x="440" y="640" width="390" height="120" as="geometry" />
        </mxCell>
        <mxCell id="Z5YL0Rhxd1yZk9jb3WXK-3" value="&lt;font style=&quot;font-size: 48px;&quot;&gt;&lt;span style=&quot;color: rgb(254, 251, 248);&quot;&gt;Analyse&lt;/span&gt;&lt;/font&gt;" style="rounded=1;whiteSpace=wrap;html=1;fillColor=#E77D1A;" vertex="1" parent="1">
          <mxGeometry x="280" y="440" width="390" height="120" as="geometry" />
        </mxCell>
        <mxCell id="Z5YL0Rhxd1yZk9jb3WXK-2" value="&lt;font style=&quot;font-size: 48px;&quot;&gt;&lt;span style=&quot;color: rgb(254, 251, 248);&quot;&gt;Anforderungen&lt;/span&gt;&lt;/font&gt;" style="rounded=1;whiteSpace=wrap;html=1;fillColor=#E77D1A;" vertex="1" parent="1">
          <mxGeometry x="120" y="240" width="390" height="120" as="geometry" />
        </mxCell>
        <mxCell id="Z5YL0Rhxd1yZk9jb3WXK-19" value="" style="endArrow=none;dashed=1;html=1;rounded=0;entryX=0;entryY=0;entryDx=76;entryDy=12.5;entryPerimeter=0;strokeWidth=3;strokeColor=#5F5F5F;" edge="1" parent="1" target="Z5YL0Rhxd1yZk9jb3WXK-10">
          <mxGeometry width="50" height="50" relative="1" as="geometry">
            <mxPoint x="800" y="361" as="sourcePoint" />
            <mxPoint x="750" y="780" as="targetPoint" />
          </mxGeometry>
        </mxCell>
        <mxCell id="Z5YL0Rhxd1yZk9jb3WXK-20" value="" style="endArrow=none;dashed=1;html=1;rounded=0;entryX=0;entryY=0;entryDx=76;entryDy=12.5;entryPerimeter=0;strokeWidth=3;strokeColor=#5F5F5F;" edge="1" parent="1">
          <mxGeometry width="50" height="50" relative="1" as="geometry">
            <mxPoint x="957" y="564.17" as="sourcePoint" />
            <mxPoint x="810" y="564.17" as="targetPoint" />
          </mxGeometry>
        </mxCell>
        <mxCell id="Z5YL0Rhxd1yZk9jb3WXK-21" value="" style="endArrow=none;dashed=1;html=1;rounded=0;entryX=0;entryY=0;entryDx=76;entryDy=12.5;entryPerimeter=0;strokeWidth=3;strokeColor=#5F5F5F;" edge="1" parent="1">
          <mxGeometry width="50" height="50" relative="1" as="geometry">
            <mxPoint x="1117" y="764.17" as="sourcePoint" />
            <mxPoint x="970" y="764.17" as="targetPoint" />
          </mxGeometry>
        </mxCell>
        <mxCell id="Z5YL0Rhxd1yZk9jb3WXK-22" value="" style="endArrow=none;dashed=1;html=1;rounded=0;entryX=0;entryY=0;entryDx=76;entryDy=12.5;entryPerimeter=0;strokeWidth=3;strokeColor=#5F5F5F;" edge="1" parent="1">
          <mxGeometry width="50" height="50" relative="1" as="geometry">
            <mxPoint x="1275" y="958.33" as="sourcePoint" />
            <mxPoint x="1128" y="958.33" as="targetPoint" />
          </mxGeometry>
        </mxCell>
        <mxCell id="Z5YL0Rhxd1yZk9jb3WXK-23" value="&lt;font style=&quot;font-size: 48px; color: rgb(95, 95, 95);&quot;&gt;Lastenheft&lt;/font&gt;" style="text;html=1;align=center;verticalAlign=middle;whiteSpace=wrap;rounded=0;strokeWidth=48;" vertex="1" parent="1">
          <mxGeometry x="900" y="340" width="60" height="30" as="geometry" />
        </mxCell>
        <mxCell id="Z5YL0Rhxd1yZk9jb3WXK-24" value="&lt;font style=&quot;font-size: 48px; color: rgb(95, 95, 95);&quot;&gt;Ãœbersicht&lt;/font&gt;" style="text;html=1;align=center;verticalAlign=middle;whiteSpace=wrap;rounded=0;strokeWidth=48;" vertex="1" parent="1">
          <mxGeometry x="1040" y="550" width="60" height="30" as="geometry" />
        </mxCell>
        <mxCell id="Z5YL0Rhxd1yZk9jb3WXK-25" value="&lt;font style=&quot;font-size: 48px; color: rgb(95, 95, 95);&quot;&gt;Pflichtenheft&lt;/font&gt;" style="text;html=1;align=center;verticalAlign=middle;whiteSpace=wrap;rounded=0;strokeWidth=48;" vertex="1" parent="1">
          <mxGeometry x="1230" y="750" width="60" height="30" as="geometry" />
        </mxCell>
        <mxCell id="Z5YL0Rhxd1yZk9jb3WXK-26" value="&lt;font style=&quot;font-size: 48px; color: rgb(95, 95, 95);&quot;&gt;Software&lt;/font&gt;" style="text;html=1;align=center;verticalAlign=middle;whiteSpace=wrap;rounded=0;strokeWidth=48;" vertex="1" parent="1">
          <mxGeometry x="1360" y="940" width="60" height="30" as="geometry" />
        </mxCell>
      </root>
    </mxGraphModel>
  </diagram>
</mxfile>
